<mxfile host="app.diagrams.net" modified="2023-12-18T16:03:22.965Z" agent="Mozilla/5.0 (X11; Linux x86_64; rv:109.0) Gecko/20100101 Firefox/115.0" etag="OxXgfZBJAOlp4Taw41xb" version="22.1.11" type="device">
  <diagram name="PÃ¡gina-1" id="_P5GHJzeENNyTZZonIQx">
    <mxGraphModel dx="874" dy="441" grid="1" gridSize="10" guides="1" tooltips="1" connect="1" arrows="1" fold="1" page="1" pageScale="1" pageWidth="827" pageHeight="1169" background="#b6eeb8" math="0" shadow="0">
      <root>
        <mxCell id="0" />
        <mxCell id="1" parent="0" />
        <mxCell id="XAhxAVN8NGR9DAT8FO0a-1" value="&lt;b&gt;&lt;i&gt;&lt;font style=&quot;font-size: 25px;&quot;&gt;Diagrama 0: Personal del bar&lt;/font&gt;&lt;/i&gt;&lt;/b&gt;" style="rounded=1;whiteSpace=wrap;html=1;" parent="1" vertex="1">
          <mxGeometry x="200" y="120" width="360" height="40" as="geometry" />
        </mxCell>
        <mxCell id="eA8gPOkBn_IQkEyoW3_3-3" style="edgeStyle=orthogonalEdgeStyle;rounded=0;orthogonalLoop=1;jettySize=auto;html=1;exitX=0.5;exitY=1;exitDx=0;exitDy=0;entryX=0.5;entryY=0;entryDx=0;entryDy=0;" edge="1" parent="1" source="XAhxAVN8NGR9DAT8FO0a-2" target="eA8gPOkBn_IQkEyoW3_3-2">
          <mxGeometry relative="1" as="geometry" />
        </mxCell>
        <mxCell id="XAhxAVN8NGR9DAT8FO0a-2" value="Personal del bar" style="rounded=1;whiteSpace=wrap;html=1;" parent="1" vertex="1">
          <mxGeometry x="320" y="200" width="120" height="80" as="geometry" />
        </mxCell>
        <mxCell id="XAhxAVN8NGR9DAT8FO0a-3" value="Personal de cocina" style="ellipse;whiteSpace=wrap;html=1;aspect=fixed;" parent="1" vertex="1">
          <mxGeometry x="60" y="320" width="140" height="140" as="geometry" />
        </mxCell>
        <mxCell id="XAhxAVN8NGR9DAT8FO0a-4" value="Personal de sala" style="ellipse;whiteSpace=wrap;html=1;aspect=fixed;" parent="1" vertex="1">
          <mxGeometry x="560" y="320" width="140" height="140" as="geometry" />
        </mxCell>
        <mxCell id="XAhxAVN8NGR9DAT8FO0a-7" value="1" style="text;html=1;align=center;verticalAlign=middle;resizable=0;points=[];autosize=1;strokeColor=none;fillColor=none;" parent="1" vertex="1">
          <mxGeometry x="115" y="320" width="30" height="30" as="geometry" />
        </mxCell>
        <mxCell id="XAhxAVN8NGR9DAT8FO0a-8" value="&lt;font style=&quot;font-size: 10px;&quot;&gt;Entrar&lt;/font&gt;" style="text;html=1;align=center;verticalAlign=middle;resizable=0;points=[];autosize=1;strokeColor=none;fillColor=none;" parent="1" vertex="1">
          <mxGeometry x="470" y="315" width="50" height="30" as="geometry" />
        </mxCell>
        <mxCell id="eA8gPOkBn_IQkEyoW3_3-4" style="edgeStyle=orthogonalEdgeStyle;rounded=0;orthogonalLoop=1;jettySize=auto;html=1;exitX=0.25;exitY=0;exitDx=0;exitDy=0;entryX=1;entryY=0;entryDx=0;entryDy=0;" edge="1" parent="1" source="eA8gPOkBn_IQkEyoW3_3-2" target="XAhxAVN8NGR9DAT8FO0a-3">
          <mxGeometry relative="1" as="geometry" />
        </mxCell>
        <mxCell id="eA8gPOkBn_IQkEyoW3_3-5" style="edgeStyle=orthogonalEdgeStyle;rounded=0;orthogonalLoop=1;jettySize=auto;html=1;exitX=0.25;exitY=1;exitDx=0;exitDy=0;entryX=1;entryY=1;entryDx=0;entryDy=0;startArrow=classic;startFill=1;endArrow=none;endFill=0;" edge="1" parent="1" source="eA8gPOkBn_IQkEyoW3_3-2" target="XAhxAVN8NGR9DAT8FO0a-3">
          <mxGeometry relative="1" as="geometry" />
        </mxCell>
        <mxCell id="eA8gPOkBn_IQkEyoW3_3-6" style="edgeStyle=orthogonalEdgeStyle;rounded=0;orthogonalLoop=1;jettySize=auto;html=1;exitX=0.75;exitY=0;exitDx=0;exitDy=0;entryX=0;entryY=0;entryDx=0;entryDy=0;" edge="1" parent="1" source="eA8gPOkBn_IQkEyoW3_3-2" target="XAhxAVN8NGR9DAT8FO0a-4">
          <mxGeometry relative="1" as="geometry" />
        </mxCell>
        <mxCell id="eA8gPOkBn_IQkEyoW3_3-7" style="edgeStyle=orthogonalEdgeStyle;rounded=0;orthogonalLoop=1;jettySize=auto;html=1;exitX=0.75;exitY=1;exitDx=0;exitDy=0;entryX=0;entryY=1;entryDx=0;entryDy=0;startArrow=classic;startFill=1;endArrow=none;endFill=0;" edge="1" parent="1" source="eA8gPOkBn_IQkEyoW3_3-2" target="XAhxAVN8NGR9DAT8FO0a-4">
          <mxGeometry relative="1" as="geometry" />
        </mxCell>
        <mxCell id="eA8gPOkBn_IQkEyoW3_3-2" value="Fichar" style="rounded=0;whiteSpace=wrap;html=1;" vertex="1" parent="1">
          <mxGeometry x="320" y="360" width="120" height="60" as="geometry" />
        </mxCell>
        <mxCell id="eA8gPOkBn_IQkEyoW3_3-8" value="&lt;font style=&quot;font-size: 10px;&quot;&gt;Salir&lt;/font&gt;" style="text;html=1;align=center;verticalAlign=middle;resizable=0;points=[];autosize=1;strokeColor=none;fillColor=none;" vertex="1" parent="1">
          <mxGeometry x="475" y="438" width="40" height="30" as="geometry" />
        </mxCell>
        <mxCell id="eA8gPOkBn_IQkEyoW3_3-9" value="&lt;font style=&quot;font-size: 10px;&quot;&gt;Entrar&lt;/font&gt;" style="text;html=1;align=center;verticalAlign=middle;resizable=0;points=[];autosize=1;strokeColor=none;fillColor=none;" vertex="1" parent="1">
          <mxGeometry x="225" y="315" width="50" height="30" as="geometry" />
        </mxCell>
        <mxCell id="eA8gPOkBn_IQkEyoW3_3-10" value="&lt;font style=&quot;font-size: 10px;&quot;&gt;Salir&lt;/font&gt;" style="text;html=1;align=center;verticalAlign=middle;resizable=0;points=[];autosize=1;strokeColor=none;fillColor=none;" vertex="1" parent="1">
          <mxGeometry x="230" y="438" width="40" height="30" as="geometry" />
        </mxCell>
        <mxCell id="eA8gPOkBn_IQkEyoW3_3-11" value="2" style="text;html=1;align=center;verticalAlign=middle;resizable=0;points=[];autosize=1;strokeColor=none;fillColor=none;" vertex="1" parent="1">
          <mxGeometry x="615" y="320" width="30" height="30" as="geometry" />
        </mxCell>
      </root>
    </mxGraphModel>
  </diagram>
</mxfile>
